<svg height='100px' width='100px'  fill="#ffffff" xmlns="http://www.w3.org/2000/svg" xmlns:xlink="http://www.w3.org/1999/xlink" version="1.1" x="0px" y="0px" viewBox="0 0 100 100" enable-background="new 0 0 100 100" xml:space="preserve"><path d="M19.516,72.075L41.021,84.5l0.002-0.002l0.002,0.002l11.278-6.502v-8.085l6.666,3.848l21.516-12.413V36.503l-11.273-6.507  l-3.495,2.005v-4.073L44.203,15.5L32.93,22.006l-0.002,19.963l-2.139-1.235L19.518,47.24L19.516,72.075z M32.926,44.347v2.52  l3.873,2.231l-6.021,3.505l-8.176-4.768l8.184-4.724L32.926,44.347z M42.057,59.068v-6.942l2.141,1.231l13.737-7.925v2.895  l-10.242,5.909v8.087L42.057,59.068z M68.178,43.605v9.441l-8.183-4.727V38.88L68.178,43.605z M34.984,24.387L53.41,35.032v9.448  l-10.242-5.913v11.818l-8.184-4.724v-0.125V24.387z M62.623,28.523l-8.203,4.703L36.014,22.603l8.248-4.689L62.623,28.523z   M77.391,37.098l-8.175,4.72l-8.069-4.659l8.062-4.785L77.391,37.098z M58.965,59.555l-8.184-4.725l8.177-4.72l8.183,4.724  L58.965,59.555z M52.301,67.534V64.98l-2.548-1.47v-6.89l8.183,4.725v9.439L52.301,67.534z M40.955,70.25l-8.096-4.675l0.008-0.005  l-0.008-0.004l8.168-4.715l8.184,4.724L40.955,70.25z M21.572,49.62l8.184,4.762l0.002,11.798l10.24,5.941v9.412L21.572,70.896  V49.62z"></path></svg>