<svg height='100px' width='100px'  fill="#57586e" xmlns="http://www.w3.org/2000/svg" xmlns:xlink="http://www.w3.org/1999/xlink" version="1.1" x="0px" y="0px" viewBox="0 0 64 64" style="enable-background:new 0 0 64 64;" xml:space="preserve"><rect x="35" y="46" width="2" height="2"></rect><path d="M47,2c-7.067,0-13.001,9.412-14.592,23H25c-0.553,0-1,0.447-1,1v3h-5.465l-3.703-5.555C14.646,23.167,14.334,23,14,23H3  c-0.369,0-0.708,0.203-0.882,0.528s-0.154,0.72,0.05,1.026L6,30.303v3.395l-3.832,5.748c-0.204,0.307-0.224,0.701-0.05,1.026  S2.631,41,3,41h11c0.334,0,0.646-0.167,0.832-0.445L18.535,35H20v2c0,0.266,0.105,0.52,0.293,0.707L23,40.414V43v8v10  c0,0.553,0.447,1,1,1h16c0.553,0,1-0.447,1-1v-1.44c1.871,1.602,3.912,2.44,6,2.44c8.411,0,15-13.178,15-30S55.411,2,47,2z M18,33H8  v-2h10h6v2h-3H18z M13.465,25l2.667,4H7.535l-2.667-4H13.465z M13.465,39H4.868l2.667-4h8.597L13.465,39z M22,36.586V35h3  c0.553,0,1-0.447,1-1v-4v-3h7.302H39v3v4v8H25v-2c0-0.266-0.105-0.52-0.293-0.707L22,36.586z M40.412,25.089  C41.531,15.93,44.592,11,47,11c3.311,0,7,8.624,7,21s-3.689,21-7,21c-2.316,0-4.723-4.194-6-10.449V35h2.062  c0.18,4.566,0.922,13,3.938,13c3.888,0,4-14.362,4-16s-0.112-16-4-16c-3.016,0-3.758,8.434-3.938,13H41v-3  c0-0.124-0.029-0.24-0.07-0.349c-0.012-0.033-0.028-0.061-0.043-0.092c-0.039-0.077-0.086-0.148-0.143-0.212  c-0.021-0.024-0.04-0.05-0.063-0.072C40.601,25.2,40.513,25.134,40.412,25.089z M25,44h14v6H25V44z M46,29h-0.937  c0.264-6.451,1.299-10.043,1.938-10.882C47.759,19.098,49,23.78,49,32s-1.241,12.902-1.999,13.882  c-0.639-0.839-1.674-4.431-1.938-10.882H46c0.553,0,1-0.447,1-1v-4C47,29.447,46.553,29,46,29z M44.029,31H45v2h-0.971H41v-2H44.029  z M39,60H25v-8h14v5.115V60z M47,60c-2.068,0-4.138-1.123-6-3.254V51v-1.637C42.595,52.969,44.69,55,47,55c4.363,0,9-8.061,9-23  S51.363,9,47,9c-4.098,0-7.424,6.254-8.584,16h-3.997C35.906,12.765,41.114,4,47,4c7.047,0,13,12.822,13,28S54.047,60,47,60z"></path><rect x="19" y="14" width="12" height="2"></rect><rect x="15" y="14" width="2" height="2"></rect><rect x="11" y="14" width="2" height="2"></rect><rect x="15" y="18" width="12" height="2"></rect><rect x="11" y="18" width="2" height="2"></rect><rect x="7" y="18" width="2" height="2"></rect></svg>